# xmcd
#
# Track frame offsets:
#	150
#	20539
#	37931
#	52702
#	76443
#	96661
#	117462
#	136920
#	162089
#	182735
#	201082
#	214968
#
# Disc length: 3063 seconds
#
# Revision: 0
# Processed by: cddbd v1.5.2PL0 Copyright (c) Steve Scherf et al.
# Submitted via: dBpowerAMP V4.0
#
DISCID=a10bf50c
DTITLE=Blues Berry Jam - FestiBlues 2003
DYEAR=2003
DGENRE=Blues
TTITLE0=Everydays I have the Blues (P. Chatman)
TTITLE1=Crossroads (R. Jonhson)
TTITLE2=Pride and Joy (Steve Ray Vaughan)
TTITLE3=Red House (Jimi Hendrix)
TTITLE4=Swet Home Chicago (R. Johnson)
TTITLE5=The Thrill Is Gone (R. Hawkins)
TTITLE6=Rack'Em Up (Bruce McCabe)
TTITLE7=Stormy Monday (T-Bone Wlker)
TTITLE8=Hoochie Coochie Man (Willie Dixon)
TTITLE9=Give Me One Reason (T. Chapman)
TTITLE10=Let's Shout (A. Tucker, J. Wilson)
TTITLE11=Riding With King (J. Hiatt)
EXTD=
EXTT0=
EXTT1=
EXTT2=
EXTT3=
EXTT4=
EXTT5=
EXTT6=
EXTT7=
EXTT8=
EXTT9=
EXTT10=
EXTT11=
PLAYORDER=
